<svg xmlns="http://www.w3.org/2000/svg">

<symbol id="phone" width="19" height="19" viewBox="0 0 19 19" fill="none" >
<path d="M11.9604 1.29175C15.0446 1.63425 17.4813 4.06758 17.8279 7.15175" stroke="#46A358" stroke-width="1.5" stroke-linecap="round" stroke-linejoin="round"/>
<path d="M11.9604 4.24425C13.4363 4.53091 14.5896 5.68508 14.8771 7.16091" stroke="#46A358" stroke-width="1.5" stroke-linecap="round" stroke-linejoin="round"/>
<path fill-rule="evenodd" clip-rule="evenodd" d="M6.41709 12.5825C0.668773 6.83352 1.48617 4.20096 2.09214 3.35263C2.16999 3.21552 4.08875 0.343233 6.14551 2.02839C11.2507 6.23288 4.78761 5.63843 9.07452 9.92607C13.3623 14.2128 12.767 7.74996 16.9716 12.8541C18.6568 14.9117 15.7844 16.8303 15.6482 16.9073C14.7998 17.5141 12.1663 18.3315 6.41709 12.5825Z" stroke="#46A358" stroke-width="1.5" stroke-linecap="round" stroke-linejoin="round"/>
</symbol>
<symbol id="location" width="14" height="18" viewBox="0 0 14 18" fill="none">
<path fill-rule="evenodd" clip-rule="evenodd" d="M9.09184 7.92542C9.09184 6.77436 8.15914 5.84166 7.00808 5.84166C5.85787 5.84166 4.92517 6.77436 4.92517 7.92542C4.92517 9.07563 5.85787 10.0083 7.00808 10.0083C8.15914 10.0083 9.09184 9.07563 9.09184 7.92542Z" stroke="#46A358" stroke-width="1.5" stroke-linecap="round" stroke-linejoin="round"/>
<path fill-rule="evenodd" clip-rule="evenodd" d="M6.99959 16.5C4.58457 16.5 0.75 12.2989 0.75 7.8322C0.75 4.33539 3.54758 1.5 6.99959 1.5C10.4516 1.5 13.25 4.33539 13.25 7.8322C13.25 12.2989 9.41543 16.5 6.99959 16.5Z" stroke="#46A358" stroke-width="1.5" stroke-linecap="round" stroke-linejoin="round"/>
</symbol>
<symbol id="message" width="18" height="18" viewBox="0 0 18 18" fill="none">
<path d="M13.6208 6.51582C13.6208 6.51582 10.9457 9.72635 8.98917 9.72635C7.03345 9.72635 4.32835 6.51582 4.32835 6.51582" stroke="#46A358" stroke-width="1.5" stroke-linecap="round" stroke-linejoin="round"/>
<path fill-rule="evenodd" clip-rule="evenodd" d="M1.0434 8.97397C1.0434 3.27556 3.02752 1.37665 8.9799 1.37665C14.9323 1.37665 16.9164 3.27556 16.9164 8.97397C16.9164 14.6716 14.9323 16.5713 8.9799 16.5713C3.02752 16.5713 1.0434 14.6716 1.0434 8.97397Z" stroke="#46A358" stroke-width="1.5" stroke-linecap="round" stroke-linejoin="round"/>
</symbol>
<symbol id="facebook" width="32" height="32" viewBox="0 0 32 32" fill="none">
<rect x="0.5" y="0.5" width="31" height="31" rx="4.5" stroke="#46A358" stroke-opacity="0.2"/>
<path d="M14 13.3333H12V16H14V24H17.3333V16H19.7333L20 13.3333H17.3333V12.2C17.3333 11.6 17.4667 11.3333 18.0667 11.3333H20V8H17.4667C15.0667 8 14 9.06667 14 11.0667V13.3333Z" fill="#46A358" fill-opacity="0.6"/>
</symbol>
<symbol  id="instagram" width="32" height="32" viewBox="0 0 32 32" fill="none">
<rect x="0.5" y="0.5" width="31" height="31" rx="4.5" stroke="#46A358" stroke-opacity="0.2"/>
<path d="M16 9.46667C18.1333 9.46667 18.4 9.46667 19.2667 9.53333C21.4667 9.6 22.4667 10.6667 22.5333 12.8C22.6 13.6667 22.6 13.8667 22.6 16C22.6 18.1333 22.6 18.4 22.5333 19.2C22.4667 21.3333 21.4 22.4 19.2667 22.4667C18.4 22.5333 18.2 22.5333 16 22.5333C13.8667 22.5333 13.6 22.5333 12.8 22.4667C10.6 22.4 9.6 21.3333 9.53333 19.2C9.46667 18.3333 9.46667 18.1333 9.46667 16C9.46667 13.8667 9.46667 13.6 9.53333 12.8C9.6 10.6667 10.6667 9.6 12.8 9.53333C13.6 9.46667 13.8667 9.46667 16 9.46667ZM16 8C13.8 8 13.5333 8 12.7333 8.06667C9.8 8.2 8.2 9.8 8.06667 12.7333C8 13.5333 8 13.8 8 16C8 18.2 8 18.4667 8.06667 19.2667C8.2 22.2 9.8 23.8 12.7333 23.9333C13.5333 24 13.8 24 16 24C18.2 24 18.4667 24 19.2667 23.9333C22.2 23.8 23.8 22.2 23.9333 19.2667C24 18.4667 24 18.2 24 16C24 13.8 24 13.5333 23.9333 12.7333C23.8 9.8 22.2 8.2 19.2667 8.06667C18.4667 8 18.2 8 16 8ZM16 11.8667C13.7333 11.8667 11.8667 13.7333 11.8667 16C11.8667 18.2667 13.7333 20.1333 16 20.1333C18.2667 20.1333 20.1333 18.2667 20.1333 16C20.1333 13.7333 18.2667 11.8667 16 11.8667ZM16 18.6667C14.5333 18.6667 13.3333 17.4667 13.3333 16C13.3333 14.5333 14.5333 13.3333 16 13.3333C17.4667 13.3333 18.6667 14.5333 18.6667 16C18.6667 17.4667 17.4667 18.6667 16 18.6667ZM20.2667 10.8C19.7333 10.8 19.3333 11.2 19.3333 11.7333C19.3333 12.2667 19.7333 12.6667 20.2667 12.6667C20.8 12.6667 21.2 12.2667 21.2 11.7333C21.2 11.2 20.8 10.8 20.2667 10.8Z" fill="#46A358" fill-opacity="0.6"/>
</symbol>

<symbol id=linkedin width="32" height="32" viewBox="0 0 32 32" fill="none">
<rect x="0.5" y="0.5" width="31" height="31" rx="4.5" stroke="#46A358" stroke-opacity="0.2"/>
<path d="M11.3333 9.66667C11.3333 10.6 10.6 11.3333 9.66667 11.3333C8.73333 11.3333 8 10.6 8 9.66667C8 8.73333 8.73333 8 9.66667 8C10.6 8 11.3333 8.73333 11.3333 9.66667ZM11.3333 12.6667H8V23.3333H11.3333V12.6667ZM16.6667 12.6667H13.3333V23.3333H16.6667V17.7333C16.6667 14.6 20.6667 14.3333 20.6667 17.7333V23.3333H24V16.6C24 11.3333 18.0667 11.5333 16.6667 14.1333V12.6667Z" fill="#46A358" fill-opacity="0.6"/>
</symbol>

<symbol id="twitter" width="32" height="32" viewBox="0 0 32 32" fill="none">
<rect x="0.5" y="0.5" width="31" height="31" rx="4.5" stroke="#46A358" stroke-opacity="0.2"/>
<path d="M13.0319 22.0036C19.0699 22.0036 22.3718 17.0012 22.3718 12.6636C22.3718 12.5214 22.3689 12.38 22.3624 12.2392C23.0033 11.7759 23.5605 11.1976 24 10.5395C23.4118 10.8008 22.7789 10.9768 22.1149 11.0562C22.7926 10.6498 23.313 10.0067 23.5585 9.24021C22.9241 9.61636 22.2217 9.88969 21.4742 10.0371C20.8749 9.39908 20.0218 9 19.0779 9C17.2648 9 15.7946 10.4702 15.7946 12.2823C15.7946 12.54 15.8236 12.7904 15.8796 13.0308C13.1516 12.8938 10.7324 11.5874 9.11352 9.60125C8.83127 10.0862 8.66877 10.65 8.66877 11.2511C8.66877 12.3899 9.24837 13.3953 10.1297 13.9836C9.59121 13.9671 9.08531 13.8189 8.64293 13.5729C8.6422 13.5866 8.6422 13.6004 8.6422 13.6148C8.6422 15.2047 9.77392 16.532 11.2758 16.8329C11.0001 16.908 10.71 16.9484 10.4105 16.9484C10.199 16.9484 9.99338 16.9273 9.79339 16.8893C10.2112 18.1933 11.4232 19.1425 12.8601 19.1693C11.7364 20.0499 10.3209 20.5745 8.78305 20.5745C8.51827 20.5745 8.25695 20.5594 8 20.529C9.45273 21.46 11.1777 22.0036 13.0319 22.0036Z" fill="#46A358" fill-opacity="0.6"/>
</symbol>

<svg id="youtube" width="32" height="32" viewBox="0 0 32 32" fill="none" xmlns="http://www.w3.org/2000/svg">
<rect x="0.5" y="0.5" width="31" height="31" rx="4.5" stroke="#46A358" stroke-opacity="0.2"/>
<path fill-rule="evenodd" clip-rule="evenodd" d="M22.1653 13.4299L22.168 13.4306C22.168 13.4306 22.1676 13.4305 22.1667 13.4303C22.1663 13.4302 22.1658 13.4301 22.1653 13.4299ZM11.3244 13.3569C13.9176 13.1957 18.7483 13.1957 21.3415 13.3569L21.3422 13.3644C21.4047 13.9972 21.4299 14.8414 21.4299 16.0192C21.4299 17.1824 21.4053 18.0269 21.3441 18.665C18.6962 18.7703 13.9713 18.7703 11.3228 18.665C11.261 18.0332 11.236 17.1914 11.236 16.0192C11.236 14.8414 11.2612 13.9972 11.3237 13.3644L11.3244 13.3569ZM22.2422 18.6111C22.2422 18.6111 22.2405 18.6115 22.237 18.6122L22.2422 18.6111ZM10.4979 18.6077L10.5006 18.6084C10.4988 18.6079 10.4979 18.6077 10.4979 18.6077ZM7 16.0192C7 20.8412 7.38887 22.63 10.4221 22.8633C13.222 23.0189 19.4439 23.0189 22.2438 22.8633C25.277 22.7078 25.6659 20.8412 25.6659 16.0192C25.6659 11.1971 25.277 9.40832 22.2438 9.17499C19.4439 8.94167 13.222 8.94167 10.4221 9.17499C7.38887 9.40832 7 11.1971 7 16.0192ZM10.4979 13.4306C10.4979 13.4306 10.4988 13.4304 10.5007 13.4299L10.4979 13.4306ZM16.7823 17.7389C15.5039 18.3781 13.9997 17.4484 13.9997 16.0192C13.9997 14.5899 15.5039 13.6602 16.7823 14.2994C18.1994 15.008 18.1994 17.0303 16.7823 17.7389Z" fill="#46A358" fill-opacity="0.6"/>
</symbol>


</svg>